<?xml version="1.0" encoding="UTF-8"?>
<svg xmlns="http://www.w3.org/2000/svg" viewBox="0 0 500 500">
  <defs>
    <style>
      .cls-1 {
        fill: #fff;
      }

      .cls-2 {
        fill: #f7f241;
      }

      .cls-3 {
        stroke-width: 8.8px;
      }

      .cls-3, .cls-4 {
        fill: none;
        stroke: #3f3f3f;
        stroke-linecap: round;
        stroke-linejoin: round;
      }

      .cls-5 {
        fill: #f55657;
      }

      .cls-6 {
        fill: #333;
      }

      .cls-4 {
        stroke-width: 14.08px;
      }
    </style>
  </defs>
  <g id="_Слой_2" data-name="Слой 2">
    <g>
      <path class="cls-1" d="M250,494.72c-65.37,0-126.82-25.46-173.04-71.68S5.28,315.37,5.28,250,30.74,123.18,76.96,76.96,184.63,5.28,250,5.28s126.82,25.46,173.04,71.68,71.68,107.68,71.68,173.04-25.46,126.82-71.68,173.04-107.68,71.68-173.04,71.68Z"/>
      <path class="cls-6" d="M250,10.56c32.33,0,63.68,6.33,93.2,18.81,28.51,12.06,54.12,29.32,76.11,51.32,21.99,21.99,39.26,47.6,51.32,76.11,12.48,29.51,18.81,60.87,18.81,93.2s-6.33,63.68-18.81,93.2c-12.06,28.51-29.32,54.12-51.32,76.11-21.99,21.99-47.6,39.26-76.11,51.32-29.51,12.48-60.87,18.81-93.2,18.81s-63.68-6.33-93.2-18.81c-28.51-12.06-54.12-29.32-76.11-51.32-21.99-21.99-39.26-47.6-51.32-76.11-12.48-29.51-18.81-60.87-18.81-93.2s6.33-63.68,18.81-93.2c12.06-28.51,29.32-54.12,51.32-76.11,21.99-21.99,47.6-39.26,76.11-51.32,29.51-12.48,60.87-18.81,93.2-18.81m0-10.56C111.93,0,0,111.93,0,250s111.93,250,250,250,250-111.93,250-250S388.07,0,250,0h0Z"/>
    </g>
    <path class="cls-3" d="M250.88,438.16v0Z"/>
    <path class="cls-3" d="M433.08,250.88h0Z"/>
    <path class="cls-3" d="M20.23,250.88h0Z"/>
    <path class="cls-3" d="M380.08,380.57l31.15,31.15-31.15-31.15Z"/>
    <path class="cls-3" d="M119.86,381.43l-31.15,31.15,31.15-31.15Z"/>
    <path class="cls-3" d="M408.59,89.2l-31.15,31.15,31.15-31.15Z"/>
    <polyline class="cls-4" points="140.01 141.73 248.28 250 414.65 333.63"/>
    <path class="cls-3" d="M88.71,89.2l32.46,32.46-32.46-32.46Z"/>
    <path class="cls-3" d="M250,64.28v0Z"/>
    <path class="cls-3" d="M477.13,250.88h0Z"/>
    <path class="cls-3" d="M250.88,438.16v0Z"/>
    <path class="cls-3" d="M20.23,250.88h0Z"/>
    <path class="cls-3" d="M19,250.5h45.91s-45.91,0-45.91,0Z"/>
    <path class="cls-3" d="M432,250.5h45.91s-45.91,0-45.91,0Z"/>
    <line class="cls-3" x1="250.13" y1="67.13" x2="250.13" y2="21.21"/>
    <line class="cls-3" x1="250.13" y1="483.13" x2="250.13" y2="437.21"/>
  </g>
  <g id="_Слой_1" data-name="Слой 1">
    <g>
      <path class="cls-2" d="M51.44,275.3L205.51,121.23c2.33-2.33,5.84-2.93,8.84-1.59s6.64,2.46,11.15,2.72c6.2,.36,11.33-1.17,14.91-2.76,2.96-1.31,6.42-.75,8.71,1.54,3.72,3.72,7.43,7.43,11.15,11.15,2.61,2.61,2.95,6.63,1.06,9.81-5.22,8.77-4.22,20.28,2.9,27.79,7.45,7.85,19.57,9.2,28.73,3.73,3.15-1.88,7.15-1.5,9.74,1.1,3.59,3.59,7.18,7.18,10.77,10.77,2.39,2.39,3.07,6.08,1.48,9.07-4.59,8.63-3.78,19.16,2.1,26.38,6.91,8.49,19.61,10.88,29.88,5.56,3-1.55,6.66-.9,9.05,1.48l12.18,12.18c2.45,2.45,2.96,6.17,1.39,9.25s-2.98,7.05-3.19,12.02c-.27,6.2,1.51,11.25,3.29,14.71,1.55,3.01,.93,6.69-1.47,9.09-51.67,51.67-103.34,103.34-155.01,155.01-3.1,3.1-8.13,3.07-11.19-.06L51.38,286.38c-3.02-3.08-2.99-8.02,.06-11.07Z"/>
      <path class="cls-5" d="M298.29,40.21l150.1,150.1c3.31,3.31,3.31,8.67,0,11.98l-39.32,39.32c-2.63,2.63-6.65,3.18-9.97,1.49-2.54-1.29-5.86-2.47-9.86-2.79-4.82-.38-8.89,.64-11.86,1.83s-6.65,.6-9.02-1.77l-11.81-11.81c-2.7-2.7-3.18-6.82-1.37-10.18,5.2-9.61,3.4-21.85-4.67-29.13-7.46-6.72-18.65-7.76-27.5-2.86-3.34,1.85-7.54,1.09-10.24-1.61-3.5-3.5-7.01-7.01-10.51-10.51-2.39-2.39-3.19-6-1.87-9.12,3.57-8.46,1.95-18.44-4.46-25.2-6.74-7.1-17.28-9.08-26.16-5.3-3.08,1.31-6.67,.45-9.04-1.91-3.68-3.68-7.36-7.36-11.04-11.04-2.55-2.55-3.17-6.41-1.64-9.67,1.98-4.21,3.87-10.59,2.1-17.84-.68-2.78-1.76-5.14-2.93-7.08-2.05-3.4-1.52-7.75,1.34-10.51,12.61-12.16,25.23-24.33,37.84-36.49,3.33-3.21,8.61-3.16,11.87,.11Z"/>
    </g>
  </g>
</svg>